<svg width="279" height="219" viewBox="0 0 279 219" fill="none" xmlns="http://www.w3.org/2000/svg">
<path d="M191.5 160.842H78.5C78.5 160.842 44.7033 36.2611 98 10.3415C130.972 -5.6937 162.236 -3.24705 191.5 18.8415C235.761 52.2501 191.5 160.842 191.5 160.842Z" fill="#292740"/>
<path d="M227.049 197.616C227.049 197.616 163.549 232.116 69.5494 208.116C56.4957 204.783 43.8571 198.532 31.5494 186.616C17.602 173.111 12.0824 161.401 5.04935 142.616C-32.4698 42.4013 288.861 -0.681202 276.549 105.616C271.855 146.143 266.101 175.371 227.049 197.616Z" fill="#8CD8D0" stroke="#292740" stroke-width="4"/>
<path d="M50.7665 96.1358C30.3631 110.805 1.76325 153.698 4.13895 120.996C10.1562 38.167 286.403 9.18187 274.5 104.5L274.499 104.491C271.331 81.7544 269.916 71.5974 216 67.9174C150.682 63.4591 103.834 57.9832 50.7665 96.1358Z" fill="#D8D479"/>
<path d="M240.003 154.021C221.037 78.3484 56.3795 64.5898 40 154.021C40 251.192 257.46 223.674 240.003 154.021Z" fill="#EBD1E4"/>
<path d="M21 153.916C40.5762 61.2852 228.197 75.123 253.221 149.236C266.614 188.902 202.148 216.192 135.609 216.983C77.827 217.669 21 198.155 21 153.916Z" fill="#DA71AA"/>
<path d="M219.211 167.617C204.208 107.079 73.9569 96.0718 61 167.617C61 245.353 238 225 219.211 167.617Z" fill="#292740"/>
<path d="M197.419 175.22C186.38 131.027 90.5343 122.992 81 175.22C81 231.968 207.581 215.898 197.419 175.22Z" fill="black"/>
<g style="mix-blend-mode:multiply">
<path d="M187 171.875C187 171.875 198.613 49.0964 205 46.3005C209.224 44.4518 264 50.3124 277 87.1222C277 105.978 275.5 128.245 264 162.848C246.443 200.066 202.224 207.462 171 211.994L146 214L187 171.875Z" fill="#D7CEF0"/>
</g>
<g style="mix-blend-mode:color-burn">
<path d="M140.5 218C140.5 218 146.178 184.78 153.018 164.879C168.83 118.881 162.026 67.6589 183.545 43.1032C198.558 42.1463 224.081 48.1599 224.081 48.1599C231.564 50.4654 267.119 58.1827 277 86.8882C277 103.786 274.125 137.863 262.615 164.879C239.286 204.531 194.084 213.477 160 218H140.5Z" fill="#D7CEF0"/>
</g>
</svg>
